<svg xmlns="http://www.w3.org/2000/svg" xmlns:xlink="http://www.w3.org/1999/xlink" width="40" height="40" viewBox="0 0 40 40">
  <defs>
    <clipPath id="clip-custom_3">
      <rect width="40" height="40"/>
    </clipPath>
  </defs>
  <g id="custom_3" data-name="custom – 3" clip-path="url(#clip-custom_3)">
    <g id="Rectangle_1" data-name="Rectangle 1" transform="translate(5.5 2)" fill="none" stroke="#000" stroke-width="2.5">
      <rect width="28" height="27" rx="5" stroke="none"/>
      <rect x="1.25" y="1.25" width="25.5" height="24.5" rx="3.75" fill="none"/>
    </g>
    <g id="Rectangle_2" data-name="Rectangle 2" transform="translate(5.5 2)" stroke="#000" stroke-width="2.5">
      <path d="M5,0H23a5,5,0,0,1,5,5V5a0,0,0,0,1,0,0H0A0,0,0,0,1,0,5V5A5,5,0,0,1,5,0Z" stroke="none"/>
      <path d="M3.594,1.25H24.406A2.344,2.344,0,0,1,26.75,3.594v0a.156.156,0,0,1-.156.156H1.406a.156.156,0,0,1-.156-.156v0A2.344,2.344,0,0,1,3.594,1.25Z" fill="none"/>
    </g>
    <rect id="Rectangle_3" data-name="Rectangle 3" width="3" height="3" transform="translate(15.5 10.5)"/>
    <rect id="Rectangle_3-2" data-name="Rectangle 3" width="3" height="3" transform="translate(20.5 10.5)"/>
    <rect id="Rectangle_3-3" data-name="Rectangle 3" width="3" height="3" transform="translate(25.5 10.5)"/>
    <rect id="Rectangle_3-4" data-name="Rectangle 3" width="3" height="3" transform="translate(10.5 16)"/>
    <rect id="Rectangle_3-5" data-name="Rectangle 3" width="3" height="3" transform="translate(15.5 16)"/>
    <rect id="Rectangle_3-6" data-name="Rectangle 3" width="3" height="3" transform="translate(20.5 16)"/>
    <rect id="Rectangle_3-7" data-name="Rectangle 3" width="3" height="3" transform="translate(25.5 16)"/>
    <rect id="Rectangle_3-8" data-name="Rectangle 3" width="3" height="3" transform="translate(10.5 21.5)"/>
    <rect id="Rectangle_3-9" data-name="Rectangle 3" width="3" height="3" transform="translate(15.5 21.5)"/>
    <rect id="Rectangle_3-10" data-name="Rectangle 3" width="3" height="3" transform="translate(20.5 21.5)"/>
    <line id="Line_1" data-name="Line 1" x2="29" transform="translate(5 34)" fill="none" stroke="#000" stroke-width="1.5"/>
    <line id="Line_2" data-name="Line 2" y1="3" x2="3" transform="translate(5 31)" fill="none" stroke="#000" stroke-linecap="round" stroke-width="1.5"/>
    <g id="Rectangle_4" data-name="Rectangle 4" transform="translate(5.5 6)" fill="none" stroke="#000" stroke-width="2.5">
      <rect width="28" height="23" rx="5" stroke="none"/>
      <rect x="1.25" y="1.25" width="25.5" height="20.5" rx="3.75" fill="none"/>
    </g>
    <line id="Line_3" data-name="Line 3" x2="3" y2="3" transform="translate(5 34)" fill="none" stroke="#000" stroke-linecap="round" stroke-width="1.5"/>
    <line id="Line_4" data-name="Line 4" x2="3" y2="3" transform="translate(31 31)" fill="none" stroke="#000" stroke-linecap="round" stroke-width="1.5"/>
    <line id="Line_5" data-name="Line 5" y1="3" x2="3" transform="translate(31 34)" fill="none" stroke="#000" stroke-linecap="round" stroke-width="1.5"/>
  </g>
</svg>
